<svg xmlns="http://www.w3.org/2000/svg" version="1.1" id="Layer_1" x="0" y="0" width="474.42" height="128" viewBox="0 0 474.42 128" enable-background="new 0 0 474.417 128" xml:space="preserve"><rect x="-414.37" y="292.58" display="none" fill="#070708" width="1.5" height="6"/><path d="M159.87 93.51V91.91h8.92v1.6h-3.63v14.69h-1.66V93.51H159.87z"/><path d="M181.8 104.2l1.31 0.69c-0.43 0.84-0.92 1.52-1.48 2.04 -0.56 0.52-1.19 0.91-1.89 1.18 -0.7 0.27-1.5 0.4-2.38 0.4 -1.96 0-3.5-0.64-4.61-1.93 -1.11-1.29-1.66-2.74-1.66-4.37 0-1.53 0.47-2.89 1.41-4.08 1.19-1.52 2.78-2.28 4.78-2.28 2.05 0 3.69 0.78 4.92 2.34 0.87 1.1 1.32 2.47 1.33 4.12H172.67c0.03 1.4 0.48 2.55 1.34 3.44 0.86 0.9 1.93 1.34 3.2 1.34 0.61 0 1.21-0.11 1.79-0.32 0.58-0.21 1.07-0.5 1.48-0.85C180.89 105.55 181.33 104.98 181.8 104.2zM181.8 100.95c-0.21-0.83-0.51-1.49-0.9-1.98s-0.92-0.89-1.57-1.19c-0.65-0.3-1.33-0.45-2.05-0.45 -1.18 0-2.2 0.38-3.05 1.14 -0.62 0.55-1.09 1.38-1.41 2.49H181.8z"/><path d="M199.88 98.65l-1.23 0.76c-1.06-1.41-2.51-2.11-4.34-2.11 -1.47 0-2.68 0.47-3.65 1.42s-1.45 2.09-1.45 3.44c0 0.88 0.22 1.7 0.67 2.48 0.45 0.77 1.06 1.38 1.84 1.8 0.78 0.43 1.65 0.64 2.62 0.64 1.77 0 3.21-0.7 4.33-2.11l1.23 0.81c-0.58 0.87-1.35 1.54-2.32 2.02 -0.97 0.48-2.08 0.72-3.31 0.72 -1.9 0-3.48-0.6-4.74-1.81 -1.25-1.21-1.88-2.68-1.88-4.42 0-1.17 0.29-2.25 0.88-3.25 0.59-1 1.39-1.78 2.42-2.34 1.02-0.56 2.17-0.84 3.44-0.84 0.8 0 1.57 0.12 2.31 0.37 0.74 0.24 1.37 0.56 1.89 0.95C199.08 97.55 199.52 98.05 199.88 98.65z"/><path d="M204.48 91.5h1.55v6.81c0.63-0.83 1.32-1.44 2.07-1.85 0.75-0.41 1.57-0.61 2.45-0.61 0.9 0 1.7 0.23 2.4 0.69 0.7 0.46 1.21 1.07 1.54 1.84 0.33 0.77 0.5 1.98 0.5 3.63v6.2h-1.55v-5.74c0-1.39-0.05-2.31-0.17-2.78 -0.19-0.8-0.54-1.4-1.05-1.8s-1.17-0.6-1.99-0.6c-0.94 0-1.78 0.31-2.52 0.93 -0.74 0.62-1.23 1.39-1.47 2.3 -0.15 0.59-0.22 1.68-0.22 3.28v4.42h-1.55V91.5z"/><path d="M220.29 96.15h1.55v2.16c0.62-0.83 1.31-1.44 2.06-1.85 0.75-0.41 1.57-0.61 2.46-0.61 0.9 0 1.7 0.23 2.4 0.69s1.21 1.07 1.55 1.85c0.33 0.77 0.5 1.98 0.5 3.62v6.2h-1.55v-5.74c0-1.39-0.06-2.31-0.17-2.78 -0.18-0.8-0.52-1.4-1.03-1.8s-1.17-0.6-1.99-0.6c-0.94 0-1.78 0.31-2.52 0.93 -0.74 0.62-1.23 1.39-1.47 2.3 -0.15 0.6-0.22 1.69-0.22 3.28v4.42h-1.55V96.15z"/><path d="M241.71 95.84c1.86 0 3.39 0.67 4.61 2.02 1.11 1.23 1.66 2.68 1.66 4.35 0 1.68-0.59 3.15-1.76 4.41 -1.17 1.26-2.68 1.89-4.52 1.89 -1.85 0-3.36-0.63-4.53-1.89 -1.17-1.26-1.76-2.73-1.76-4.41 0-1.67 0.55-3.11 1.66-4.34C238.31 96.52 239.85 95.84 241.71 95.84zM241.71 97.36c-1.29 0-2.4 0.48-3.32 1.43s-1.39 2.1-1.39 3.45c0 0.87 0.21 1.68 0.63 2.44 0.42 0.75 0.99 1.33 1.71 1.74 0.72 0.41 1.51 0.61 2.37 0.61s1.65-0.2 2.37-0.61c0.72-0.41 1.29-0.99 1.71-1.74 0.42-0.75 0.63-1.56 0.63-2.43 0-1.35-0.46-2.5-1.39-3.45C244.09 97.83 242.99 97.36 241.71 97.36z"/><path d="M252.65 91.5h1.55v16.69h-1.55V91.5z"/><path d="M265.14 95.84c1.86 0 3.39 0.67 4.61 2.02 1.11 1.23 1.66 2.68 1.66 4.35 0 1.68-0.59 3.15-1.76 4.41 -1.17 1.26-2.68 1.89-4.52 1.89 -1.85 0-3.36-0.63-4.53-1.89 -1.17-1.26-1.76-2.73-1.76-4.41 0-1.67 0.55-3.11 1.66-4.34C261.74 96.52 263.28 95.84 265.14 95.84zM265.14 97.36c-1.29 0-2.4 0.48-3.32 1.43s-1.39 2.1-1.39 3.45c0 0.87 0.21 1.68 0.63 2.44 0.42 0.75 0.99 1.33 1.71 1.74 0.72 0.41 1.51 0.61 2.37 0.61s1.65-0.2 2.37-0.61c0.72-0.41 1.29-0.99 1.71-1.74 0.42-0.75 0.63-1.56 0.63-2.43 0-1.35-0.46-2.5-1.39-3.45C267.52 97.83 266.42 97.36 265.14 97.36z"/><path d="M286.51 96.15h1.55v9.6c0 1.69-0.15 2.93-0.44 3.71 -0.41 1.11-1.11 1.96-2.11 2.56 -1 0.6-2.21 0.9-3.62 0.9 -1.03 0-1.96-0.15-2.78-0.44 -0.82-0.29-1.49-0.68-2.01-1.18 -0.52-0.49-0.99-1.21-1.43-2.16h1.68c0.46 0.8 1.05 1.39 1.77 1.77 0.72 0.38 1.62 0.57 2.69 0.57 1.06 0 1.95-0.2 2.68-0.59 0.73-0.39 1.25-0.89 1.56-1.48s0.47-1.56 0.47-2.89v-0.62c-0.58 0.74-1.3 1.3-2.14 1.7 -0.84 0.4-1.73 0.59-2.68 0.59 -1.11 0-2.15-0.27-3.12-0.82 -0.98-0.55-1.73-1.29-2.26-2.22 -0.53-0.93-0.8-1.95-0.8-3.07s0.28-2.15 0.83-3.12c0.55-0.96 1.32-1.72 2.3-2.28 0.98-0.56 2.01-0.84 3.1-0.84 0.9 0 1.74 0.19 2.52 0.56 0.78 0.37 1.53 0.99 2.26 1.84V96.15zM281.94 97.33c-0.88 0-1.69 0.21-2.45 0.64 -0.75 0.43-1.34 1.01-1.77 1.76 -0.43 0.75-0.64 1.56-0.64 2.43 0 1.32 0.44 2.41 1.33 3.28 0.89 0.86 2.03 1.3 3.44 1.3 1.43 0 2.57-0.43 3.44-1.28s1.3-1.98 1.3-3.38c0-0.91-0.2-1.72-0.6-2.43s-0.96-1.27-1.69-1.69C283.57 97.54 282.78 97.33 281.94 97.33z"/><path d="M292.03 96.15h1.64l4.14 9.27 4.02-9.27h1.65l-7.18 16.45h-1.64l2.32-5.32L292.03 96.15z"/><path d="M322.47 91.91l7.59 16.28h-1.76l-2.56-5.36h-7.01l-2.54 5.36h-1.81l7.69-16.28H322.47zM322.27 95.37l-2.79 5.89h5.57L322.27 95.37z"/><path d="M345.6 91.5v16.69h-1.53v-2.07c-0.65 0.79-1.38 1.38-2.19 1.78 -0.81 0.4-1.69 0.6-2.65 0.6 -1.7 0-3.16-0.62-4.37-1.85 -1.21-1.24-1.81-2.74-1.81-4.51 0-1.73 0.61-3.22 1.83-4.45s2.68-1.85 4.39-1.85c0.99 0 1.88 0.21 2.68 0.63 0.8 0.42 1.5 1.05 2.11 1.89v-6.86H345.6zM339.4 97.33c-0.86 0-1.66 0.21-2.39 0.64 -0.73 0.43-1.31 1.02-1.74 1.79 -0.43 0.77-0.65 1.58-0.65 2.43 0 0.85 0.22 1.66 0.65 2.43 0.44 0.77 1.02 1.38 1.75 1.81 0.73 0.43 1.52 0.65 2.36 0.65 0.85 0 1.65-0.21 2.41-0.64 0.76-0.43 1.34-1.01 1.75-1.73s0.61-1.55 0.61-2.47c0-1.39-0.46-2.56-1.38-3.49C341.87 97.8 340.75 97.33 339.4 97.33z"/><path d="M349.75 96.15h1.65l4.04 8.78 3.99-8.78h1.66l-5.51 12.04h-0.29L349.75 96.15z"/><path d="M365.89 91.19c0.35 0 0.65 0.13 0.9 0.38 0.25 0.25 0.38 0.55 0.38 0.91 0 0.35-0.12 0.65-0.37 0.9 -0.25 0.25-0.55 0.38-0.9 0.38 -0.35 0-0.64-0.13-0.89-0.38 -0.25-0.25-0.37-0.55-0.37-0.9 0-0.35 0.13-0.66 0.38-0.91S365.55 91.19 365.89 91.19zM365.12 96.15h1.55v12.04h-1.55V96.15z"/><path d="M378.01 97.47l-1 1.03c-0.83-0.8-1.64-1.21-2.43-1.21 -0.5 0-0.93 0.17-1.29 0.5 -0.36 0.33-0.54 0.72-0.54 1.16 0 0.39 0.15 0.76 0.44 1.12 0.3 0.36 0.92 0.79 1.86 1.27 1.15 0.6 1.94 1.17 2.35 1.73 0.41 0.56 0.61 1.19 0.61 1.89 0 0.99-0.35 1.83-1.04 2.51 -0.69 0.69-1.56 1.03-2.6 1.03 -0.69 0-1.36-0.15-1.99-0.45 -0.63-0.3-1.15-0.72-1.57-1.25l0.97-1.11c0.79 0.89 1.63 1.34 2.52 1.34 0.62 0 1.15-0.2 1.59-0.6s0.65-0.87 0.65-1.41c0-0.44-0.14-0.84-0.43-1.18 -0.29-0.34-0.94-0.77-1.95-1.28 -1.09-0.56-1.83-1.11-2.22-1.66 -0.39-0.55-0.59-1.17-0.59-1.87 0-0.91 0.31-1.68 0.94-2.28 0.62-0.6 1.41-0.91 2.37-0.91C375.77 95.84 376.89 96.38 378.01 97.47z"/><path d="M388.22 95.84c1.86 0 3.39 0.67 4.61 2.02 1.11 1.23 1.66 2.68 1.66 4.35 0 1.68-0.59 3.15-1.76 4.41 -1.17 1.26-2.68 1.89-4.52 1.89 -1.85 0-3.36-0.63-4.53-1.89 -1.17-1.26-1.76-2.73-1.76-4.41 0-1.67 0.55-3.11 1.66-4.34C384.81 96.52 386.36 95.84 388.22 95.84zM388.21 97.36c-1.29 0-2.4 0.48-3.32 1.43s-1.39 2.1-1.39 3.45c0 0.87 0.21 1.68 0.63 2.44 0.42 0.75 0.99 1.33 1.71 1.74 0.72 0.41 1.51 0.61 2.37 0.61s1.65-0.2 2.37-0.61c0.72-0.41 1.29-0.99 1.71-1.74 0.42-0.75 0.63-1.56 0.63-2.43 0-1.35-0.46-2.5-1.39-3.45C390.6 97.83 389.49 97.36 388.21 97.36z"/><path d="M398.98 96.15h1.58v1.76c0.47-0.69 0.97-1.21 1.5-1.56 0.52-0.34 1.07-0.51 1.64-0.51 0.43 0 0.89 0.14 1.37 0.41l-0.81 1.31c-0.32-0.14-0.6-0.21-0.82-0.21 -0.52 0-1.01 0.21-1.49 0.64 -0.48 0.43-0.84 1.08-1.1 1.98 -0.19 0.69-0.29 2.07-0.29 4.16v4.07h-1.58V96.15z"/><path d="M414.63 97.47l-1 1.03c-0.83-0.8-1.64-1.21-2.43-1.21 -0.5 0-0.93 0.17-1.29 0.5 -0.36 0.33-0.54 0.72-0.54 1.16 0 0.39 0.15 0.76 0.44 1.12 0.3 0.36 0.92 0.79 1.86 1.27 1.15 0.6 1.94 1.17 2.35 1.73 0.41 0.56 0.61 1.19 0.61 1.89 0 0.99-0.35 1.83-1.04 2.51 -0.69 0.69-1.56 1.03-2.6 1.03 -0.69 0-1.36-0.15-1.99-0.45 -0.63-0.3-1.15-0.72-1.57-1.25l0.97-1.11c0.79 0.89 1.63 1.34 2.52 1.34 0.62 0 1.15-0.2 1.59-0.6s0.65-0.87 0.65-1.41c0-0.44-0.14-0.84-0.43-1.18 -0.29-0.34-0.94-0.77-1.95-1.28 -1.09-0.56-1.83-1.11-2.22-1.66 -0.39-0.55-0.59-1.17-0.59-1.87 0-0.91 0.31-1.68 0.94-2.28 0.62-0.6 1.41-0.91 2.37-0.91C412.39 95.84 413.51 96.38 414.63 97.47z"/><path d="M420.61 105.21l1.49 0.71 -2.25 4.18 -1.1-0.46L420.61 105.21z"/><path d="M435.68 91.91h1.63v14.71h6.27v1.57h-7.89V91.91z"/><path d="M447.95 91.91h1.63v14.71h6.27v1.57h-7.89V91.91z"/><path d="M474.42 94.93l-1.28 0.99c-0.71-0.92-1.56-1.62-2.55-2.1 -0.99-0.48-2.08-0.71-3.27-0.71 -1.3 0-2.5 0.31-3.61 0.94 -1.11 0.62-1.96 1.46-2.57 2.51 -0.61 1.05-0.91 2.23-0.91 3.55 0 1.99 0.68 3.64 2.04 4.97 1.36 1.33 3.08 1.99 5.15 1.99 2.28 0 4.19-0.89 5.72-2.68l1.28 0.97c-0.81 1.03-1.82 1.83-3.04 2.4s-2.57 0.85-4.07 0.85c-2.85 0-5.1-0.95-6.74-2.84 -1.38-1.6-2.07-3.53-2.07-5.8 0-2.38 0.84-4.39 2.51-6.02 1.67-1.63 3.77-2.44 6.28-2.44 1.52 0 2.89 0.3 4.12 0.9C472.63 93.01 473.64 93.85 474.42 94.93z"/><path d="M161.2 19.29h30.78v10.66h-20.12v10.35h20.13v10.46h-20.12V65.8h20.13v10.7h-30.78V19.29z"/><path d="M205.04 34.18h10.47v4.34c2.37-2.03 4.52-3.44 6.45-4.24 1.93-0.79 3.9-1.19 5.91-1.19 4.14 0 7.64 1.47 10.53 4.39 2.42 2.49 3.64 6.17 3.64 11.05v27.96h-10.35v-18.53c0-5.05-0.22-8.4-0.67-10.06s-1.22-2.92-2.33-3.79 -2.48-1.3-4.11-1.3c-2.12 0-3.93 0.72-5.45 2.16 -1.52 1.44-2.57 3.43-3.15 5.96 -0.31 1.32-0.46 4.18-0.46 8.59v16.98h-10.46V34.18z"/><path d="M248.7 34.18h10.66l10.54 24.97 10.51-24.97h10.61l-17.75 42.31h-6.78L248.7 34.18z"/><path d="M304.56 16.76c1.84 0 3.41 0.68 4.72 2.02 1.31 1.35 1.97 2.98 1.97 4.9 0 1.89-0.65 3.51-1.95 4.84s-2.85 2-4.66 2c-1.86 0-3.45-0.68-4.76-2.04 -1.31-1.36-1.97-3.01-1.97-4.96 0-1.87 0.65-3.46 1.95-4.78C301.16 17.42 302.73 16.76 304.56 16.76zM299.33 34.18h10.47v42.31h-10.46V34.18z"/><path d="M348.28 40.09l-6.48 6.57c-2.63-2.64-5.02-3.97-7.17-3.97 -1.18 0-2.1 0.25-2.76 0.76 -0.66 0.51-1 1.14-1 1.89 0 0.57 0.21 1.1 0.63 1.58 0.42 0.48 1.46 1.14 3.12 1.96l3.83 1.95c4.04 2.02 6.81 4.08 8.32 6.18 1.51 2.1 2.26 4.56 2.26 7.39 0 3.76-1.36 6.9-4.08 9.41 -2.72 2.52-6.37 3.77-10.94 3.77 -6.08 0-10.94-2.41-14.57-7.23l6.44-7.12c1.23 1.45 2.66 2.63 4.31 3.52s3.11 1.34 4.39 1.34c1.38 0 2.49-0.34 3.34-1.01 0.84-0.67 1.26-1.45 1.26-2.33 0-1.63-1.52-3.23-4.56-4.78l-3.53-1.79c-6.75-3.45-10.12-7.76-10.12-12.95 0-3.34 1.27-6.2 3.81-8.58 2.54-2.37 5.8-3.56 9.76-3.56 2.71 0 5.26 0.6 7.65 1.81S346.62 37.84 348.28 40.09z"/><path d="M364.76 16.76c1.84 0 3.41 0.68 4.72 2.02 1.31 1.35 1.97 2.98 1.97 4.9 0 1.89-0.65 3.51-1.95 4.84s-2.85 2-4.66 2c-1.86 0-3.45-0.68-4.76-2.04 -1.31-1.36-1.97-3.01-1.97-4.96 0-1.87 0.65-3.46 1.95-4.78C361.35 17.42 362.92 16.76 364.76 16.76zM359.52 34.18h10.47v42.31h-10.46V34.18z"/><path d="M402.26 33.09c3.94 0 7.64 1 11.1 3 3.46 2 6.17 4.71 8.11 8.13 1.94 3.42 2.91 7.12 2.91 11.08 0 3.99-0.98 7.73-2.93 11.2 -1.95 3.48-4.62 6.19-7.99 8.15 -3.37 1.96-7.09 2.94-11.15 2.94 -5.98 0-11.09-2.16-15.31-6.48 -4.23-4.32-6.34-9.56-6.34-15.73 0-6.61 2.39-12.12 7.17-16.53C392 35.01 396.81 33.09 402.26 33.09zM402.43 43.09c-3.25 0-5.96 1.15-8.12 3.44 -2.16 2.29-3.24 5.23-3.24 8.81 0 3.68 1.07 6.66 3.21 8.95 2.14 2.28 4.85 3.42 8.12 3.42 3.28 0 6-1.15 8.18-3.46 2.18-2.31 3.26-5.28 3.26-8.91 0-3.63-1.07-6.58-3.21-8.85C408.49 44.22 405.76 43.09 402.43 43.09z"/><path d="M435.58 34.18h10.47v4.34c2.37-2.03 4.52-3.44 6.45-4.24 1.93-0.79 3.9-1.19 5.92-1.19 4.13 0 7.64 1.47 10.53 4.39 2.42 2.49 3.64 6.17 3.64 11.05v27.96h-10.35v-18.53c0-5.05-0.22-8.4-0.67-10.06 -0.45-1.66-1.23-2.92-2.33-3.79 -1.11-0.87-2.48-1.3-4.11-1.3 -2.12 0-3.93 0.72-5.45 2.16 -1.52 1.44-2.57 3.43-3.15 5.96 -0.31 1.32-0.46 4.18-0.46 8.59v16.98h-10.47V34.18z"/><linearGradient id="SVGID_1_" gradientUnits="userSpaceOnUse" x1="21.54" y1="106.46" x2="106.46" y2="21.54"><stop offset="0.26" stop-color="#6C9CAB"/><stop offset="0.51" stop-color="#94BFCF"/><stop offset="0.76" stop-color="#6C9CAB"/></linearGradient><path fill="url(#SVGID_1_)" d="M121.61 39.13h-13.42V25.71c0-3.26-2.64-5.89-5.89-5.89H88.87V6.39c0-3.25-2.64-5.89-5.89-5.89H6.39C3.14 0.5 0.5 3.14 0.5 6.39v76.59c0 3.25 2.64 5.89 5.89 5.89h13.42v13.43c0 3.25 2.64 5.89 5.89 5.89h13.42v13.43c0 3.25 2.64 5.89 5.89 5.89h76.59c3.25 0 5.89-2.64 5.89-5.89V45.02C127.5 41.77 124.86 39.14 121.61 39.13zM102.29 24.65c0.59 0 1.06 0.48 1.06 1.06v13.42H88.87V24.65H102.29zM39.13 84.04H24.65l0-58.33c0-0.59 0.48-1.06 1.06-1.06h58.33v14.49H45.02c-3.25 0-5.89 2.64-5.89 5.89V84.04zM43.96 45.02c0-0.59 0.48-1.06 1.06-1.06h39.02v39.02c0 0.59-0.48 1.06-1.06 1.06H43.96L43.96 45.02zM82.98 88.87c3.25 0 5.89-2.64 5.89-5.89V43.96h14.49v58.33c0 0.59-0.48 1.06-1.06 1.06H43.96l0-14.49H82.98zM6.39 84.04c-0.59 0-1.06-0.48-1.06-1.06L5.33 6.39c0-0.59 0.48-1.06 1.06-1.06h76.59c0.59 0 1.06 0.48 1.06 1.06v13.43H25.71c-3.25 0-5.89 2.64-5.89 5.89v58.33H6.39zM25.71 103.36c-0.59 0-1.06-0.48-1.06-1.06l0-13.43h14.49v14.49H25.71zM122.67 121.61c0 0.58-0.48 1.06-1.06 1.06H45.02c-0.59 0-1.06-0.48-1.06-1.06l0-13.43h58.33c3.26 0 5.89-2.64 5.89-5.89V43.96h13.42c0.59 0 1.06 0.48 1.06 1.06V121.61z"/><path fill="#6C9CAB" d="M45.02 128c-3.53 0-6.39-2.86-6.39-6.39l0 0v-12.93l-12.92 0c-3.53 0-6.39-2.86-6.39-6.39l0 0V89.37H6.39c-3.53 0-6.39-2.86-6.39-6.39l0 0V6.39C0 2.86 2.86 0 6.39 0l0 0 76.59 0c3.53 0 6.39 2.86 6.39 6.39l0 0v12.92l12.93 0c3.53 0 6.39 2.86 6.39 6.39l0 0v12.92h12.93v0.5 -0.5c3.53 0 6.39 2.86 6.39 6.39l0 0v76.59c0 3.53-2.86 6.39-6.39 6.39l0 0H45.02L45.02 128zM1 6.39v76.58c0 2.98 2.41 5.39 5.39 5.39l0 0h13.93v13.93c0 2.98 2.41 5.39 5.39 5.39l0 0H39.63v13.93c0 2.98 2.42 5.39 5.39 5.39l0 0L121.61 127c2.98 0 5.39-2.41 5.39-5.39l0 0V45.02c0-2.98-2.41-5.39-5.39-5.39l0 0h-13.92V25.71c0-2.98-2.41-5.39-5.39-5.39l0 0H88.37V6.39c0-2.98-2.41-5.39-5.39-5.39l0 0H6.39C3.41 1 1 3.41 1 6.39L1 6.39zM45.02 123.17c-0.86 0-1.56-0.7-1.56-1.56l0 0 0-13.93h58.83c2.98 0 5.39-2.41 5.39-5.39l0 0V43.46h13.93c0.86 0 1.56 0.7 1.56 1.56l0 0v76.59c0 0.86-0.7 1.56-1.56 1.56l0 0H45.02L45.02 123.17zM44.46 121.61c0 0.31 0.26 0.56 0.56 0.56l0 0 76.58 0c0.31 0 0.56-0.25 0.56-0.56l0 0V45.03c0-0.31-0.25-0.56-0.56-0.56l0 0h-12.92v57.83c0 3.53-2.86 6.39-6.39 6.39l0 0 -57.83 0V121.61L44.46 121.61zM43.46 103.86l0-15.49h39.52v0.5 0.5 0l-38.52 0v13.49l57.83 0c0.31 0 0.56-0.25 0.56-0.56l0 0V44.46H89.37v38.52c0 3.53-2.86 6.39-6.39 6.39l0 0v-0.5 -0.5c2.98 0 5.39-2.41 5.39-5.39l0 0V43.46h15.49v58.83c0 0.86-0.7 1.56-1.56 1.56l0 0H43.46L43.46 103.86zM25.71 103.86v-0.5l0 0.5c-0.86 0-1.56-0.7-1.56-1.56l0 0 0-13.93H39.63v15.49H25.71L25.71 103.86zM38.63 102.86v-13.49H25.14v12.93c0 0.31 0.26 0.56 0.56 0.56l0 0H38.63L38.63 102.86zM43.46 84.54l0-39.52c0-0.86 0.7-1.56 1.56-1.56l0 0H84.54v39.52c0 0.86-0.7 1.56-1.56 1.56l0 0H43.46L43.46 84.54zM44.46 83.54l38.52 0c0.31 0 0.56-0.25 0.56-0.56l0 0V44.46H45.02c-0.31 0-0.56 0.25-0.56 0.56l0 0V83.54L44.46 83.54zM24.14 84.54l0-58.83c0-0.86 0.7-1.56 1.56-1.56l0 0H84.54v15.49H45.02c-2.98 0-5.39 2.41-5.39 5.39l0 0v39.02 0.5H24.14L24.14 84.54zM39.13 84.04v-0.5V84.04L39.13 84.04zM25.15 25.71l0 57.83h13.49V45.02c0-3.53 2.86-6.39 6.39-6.39l0 0 38.52 0V25.15H25.71C25.4 25.15 25.15 25.4 25.15 25.71L25.15 25.71zM6.39 84.54v-0.5L6.39 84.54c-0.86 0-1.56-0.7-1.56-1.56l0 0L4.83 6.39c0-0.86 0.7-1.56 1.56-1.56l0 0H82.98c0.86 0 1.56 0.7 1.56 1.56l0 0v13.92H25.71c-2.98 0-5.39 2.41-5.39 5.39l0 0V84.54H6.39L6.39 84.54zM19.32 83.54V25.71c0-3.53 2.86-6.39 6.39-6.39l0 0H83.54V6.39c0-0.31-0.25-0.56-0.56-0.56l0 0H6.39c-0.31 0-0.56 0.26-0.56 0.56l0 0L5.83 82.98c0 0.31 0.26 0.56 0.57 0.56l0 0H19.32L19.32 83.54zM88.37 39.63V24.15h13.93v0.5l0-0.5c0.86 0 1.56 0.7 1.56 1.56l0 0v13.92H88.37L88.37 39.63zM89.37 38.63h13.49V25.71c0-0.31-0.25-0.56-0.56-0.56l0 0h-12.92V38.63L89.37 38.63z"/></svg>